inDegrees=no
num_controls=7
num_derivatives=13
num_iterations=120
num_multipliers=7
num_parameters=0
num_slacks=7
num_states=26
objective=5.082942
objective_accelerations=0.631315
objective_balance=0.011991
objective_effort=0.163384
objective_height=4.250249
objective_ligament=0.026003
solver_duration=1319.212202
status=Solve_Succeeded
success=true
DataType=double
version=3
OpenSimVersion=4.4-2022-07-23-0e9fedc
endheader
time	/jointset/ground_pelvis/pelvis_tilt/value	/jointset/ground_pelvis/pelvis_tx/value	/jointset/ground_pelvis/pelvis_ty/value	/jointset/hip_l/hip_flexion_l/value	/jointset/hip_l/hip_adduction_l/value	/jointset/hip_l/hip_rotation_l/value	/jointset/back/lumbar_extension/value	/jointset/patellofemoral_l/patellar_flexion_l/value	/jointset/knee_l/knee_flexion_l/value	/jointset/knee_l/knee_adduction_l/value	/jointset/knee_l/knee_rotation_l/value	/jointset/ankle_l/ankle_angle_l/value	/jointset/subtalar_l/subtalar_angle_l/value	/jointset/ground_pelvis/pelvis_tilt/speed	/jointset/ground_pelvis/pelvis_tx/speed	/jointset/ground_pelvis/pelvis_ty/speed	/jointset/hip_l/hip_flexion_l/speed	/jointset/hip_l/hip_adduction_l/speed	/jointset/hip_l/hip_rotation_l/speed	/jointset/back/lumbar_extension/speed	/jointset/patellofemoral_l/patellar_flexion_l/speed	/jointset/knee_l/knee_flexion_l/speed	/jointset/knee_l/knee_adduction_l/speed	/jointset/knee_l/knee_rotation_l/speed	/jointset/ankle_l/ankle_angle_l/speed	/jointset/subtalar_l/subtalar_angle_l/speed	/forceset/tau_hip_flexion_l	/forceset/tau_hip_adduction_l	/forceset/tau_hip_rotation_l	/forceset/tau_knee_flexion_l	/forceset/tau_ankle_angle_l	/forceset/tau_subtalar_angle_l	/forceset/tau_lumbar_extension	lambda_cid13_p0	lambda_cid13_p1	lambda_cid13_p2	lambda_cid13_p3	lambda_cid13_p4	lambda_cid13_p5	lambda_cid14_p0	/jointset/ground_pelvis/pelvis_tilt/accel	/jointset/ground_pelvis/pelvis_tx/accel	/jointset/ground_pelvis/pelvis_ty/accel	/jointset/hip_l/hip_flexion_l/accel	/jointset/hip_l/hip_adduction_l/accel	/jointset/hip_l/hip_rotation_l/accel	/jointset/back/lumbar_extension/accel	/jointset/patellofemoral_l/patellar_flexion_l/accel	/jointset/knee_l/knee_flexion_l/accel	/jointset/knee_l/knee_adduction_l/accel	/jointset/knee_l/knee_rotation_l/accel	/jointset/ankle_l/ankle_angle_l/accel	/jointset/subtalar_l/subtalar_angle_l/accel	gamma_cid13_p0	gamma_cid13_p1	gamma_cid13_p2	gamma_cid13_p3	gamma_cid13_p4	gamma_cid13_p5	gamma_cid14_p0
1	-0.4001155352074924	0.009204627174375011	0.6291409070855222	1.556057668646249	-0.3557845802457473	0.1388383815751664	-0.4363242005398252	1.424455918155385	1.424455918155435	0.01452857289954266	-0.1745271030968052	0.4350329017226817	0.2340755733324191	-0.1410735537291535	0.002163393765375101	0.03017404065990579	0.03333394742557802	-0.001413603634275265	-0.04254190304459105	3.520564842732213e-05	-0.1490763186212956	-0.1490763186212613	-0.01802460746558971	-0.0001105984917863517	-0.05472366534573959	-0.03437011679418916	-0.2140574515090088	0.03285472040614057	-0.002941747977386838	-0.2845199723168041	-0.04242789819991653	0.01595194422710301	0.193670824084352	-44.14138756672685	4.214864422692401	-4.852534510093262	6.17397515938979	-532.8584826113578	-76.6980025510602	-0.02421810939548211	1.409703452195917	0.1984761131913219	1.770192723434159	-5.945478120046557	-0.1988556682005902	-1.501194870070509	-0.02374196688421417	-5.234183063235178	-5.2341830632349	-0.7621696137428221	-0.02739552071622195	-1.155286215972207	-0.9856957191390447	-8.176433202433242e-09	-9.256749373630044e-08	2.290866753138452e-08	8.705827001272553e-10	-7.32086662663873e-09	-8.038485787368277e-08	-8.141927237167575e-09
1.01	-0.4014565118066321	0.009236195873947844	0.6295309506238608	1.556094793528505	-0.3558080770695309	0.1383386058646426	-0.436324197214139	1.422703792017607	1.422703792017509	0.01431049048007025	-0.1745282064798768	0.4344279585237164	0.2336836332811763	-0.1271188764167351	0.004156307033709182	0.04782688813962511	-0.02590127602792201	-0.00328322135496161	-0.0574085281531025	-3.789639965334364e-05	-0.2013483650987092	-0.2013483650986286	-0.02558921611294398	-0.0001080703144430431	-0.066273299956599	-0.0440104177161927	-0.2143691226142182	0.03290617558257881	-0.002953739032858851	-0.28365625620726	-0.04254628539330814	0.01594258728615667	0.1938094717985464	-44.15008750428535	4.193723751505273	-4.818634687704137	6.041552585835573	-532.6530194634714	-76.54818353473071	-0.02423657444589521	1.388783103994	0.2005924785216897	1.761661566982555	-5.91139063455317	-0.1806356455798339	-1.478703451717224	0.0004022920742358625	-5.223631660675199	-5.22363166066855	-0.7532221427863445	0.01437647805671689	-1.15605815190506	-0.9520602721901498	-9.69233316600906e-09	-1.185876708886221e-07	2.724350226476612e-08	-2.899587280952674e-09	-1.176998776883518e-08	-9.636681447024718e-08	-1.099076369211587e-08
1.02	-0.402657854985976	0.009287872415177159	0.6300972887983455	1.555539796940943	-0.3558501942348293	0.1376903024789192	-0.4363250255855521	1.420428962170919	1.420428962170656	0.01401683884358625	-0.1745292246830017	0.4337072677649902	0.2331955176220212	-0.1131468697751781	0.006184962096672173	0.06543296788922948	-0.08509034654347762	-0.005137671938731037	-0.07224743808064304	-0.0001311338139375309	-0.2536170604033357	-0.2536170604032069	-0.03313845086247943	-9.356249322594531e-05	-0.07787317729793608	-0.05360523837656207	-0.2146807937193133	0.03295763075895086	-0.002965730088479722	-0.2827925400977149	-0.04266467258672457	0.01593323034509041	0.1939481195128567	-44.1643626219923	4.172637745580584	-4.783690945464108	5.914403961727582	-532.5706658220892	-76.39430234246029	-0.02425688809508506	1.41316931802378	0.2056244721170054	1.760839177411152	-5.936247532457627	-0.1958222408171467	-1.495651833876293	-0.02776904012410781	-5.233512828677742	-5.23351282867706	-0.7590948341790115	-0.02499959194139124	-1.165334762067894	-0.9765996668122056	-1.199309857057893e-08	-1.442492732722073e-07	3.282804430470007e-08	-4.990509269236365e-09	-1.737736287008234e-08	-1.111346764318286e-07	-1.395690866691896e-08
1.03	-0.4037192503068472	0.009360066030572428	0.630839431577122	1.5543929948644	-0.3559107610902124	0.1368937425693624	-0.4363268414636821	1.41763145111088	1.417631451110921	0.01364781517490063	-0.1745300111790468	0.4328703292626694	0.2326117445937266	-0.0991147785679251	0.008264942629380134	0.08298567273200956	-0.1442777009845674	-0.006972181348697136	-0.08705831101479847	-0.0002314078732223832	-0.3058860643447833	-0.3058860643446878	-0.04066307085938294	-6.037176499293145e-05	-0.08952287521876547	-0.06313711059851039	-0.2149362766690706	0.03303362336101451	-0.002973162509922753	-0.2817105699299411	-0.04278285656305744	0.01594681229808518	0.194083660922323	-44.16190397075827	4.128769140468218	-4.733818004933423	5.748399374418067	-532.3267884635866	-76.23348744902391	-0.02428445367769418	1.40084064057701	0.2108606650988128	1.750994234151243	-5.911125368556925	-0.1767392321771202	-1.472890957201078	-0.001061500388615326	-5.223727684919277	-5.223727684924897	-0.7486859771481288	0.01798099581130682	-1.166050571535817	-0.9396199461786845	-1.430187280617936e-08	-1.699072167295808e-07	3.8425338460007e-08	-7.064296073920084e-09	-2.299655688927899e-08	-1.258901496726448e-07	-1.692425066743484e-08
1.04	-0.404639802391909	0.00945339461554472	0.6317568030236146	1.552654090049779	-0.3559895678278991	0.1359492567436268	-0.436329641063997	1.414311223309818	1.414311223310123	0.01320363722727927	-0.174530365249736	0.4319166411282573	0.2319330250539533	-0.08497822262066991	0.0104119560120769	0.1004787014325403	-0.2035108941705572	-0.008785648402281328	-0.1018326213095921	-0.0003278783947951851	-0.3581604086078577	-0.3581604086077985	-0.04816930664437064	-7.077412546281987e-06	-0.1012231037173981	-0.07259454067216305	-0.2151917596185407	0.03310961596297558	-0.002980594931484367	-0.2806285997621749	-0.04290104053945422	0.01596039425087708	0.1942192023320818	-44.16520170393932	4.085055767154024	-4.682995819625149	5.587875599991248	-532.2072075390453	-76.06899214166411	-0.02431394209180398	1.434062266024437	0.2190310421146343	1.748903948961252	-5.945415281437575	-0.1916137695407785	-1.488339306003971	-0.02700833257870697	-5.234580893003026	-5.234580893002966	-0.7554179917958252	-0.02097886709879112	-1.17544087762876	-0.961711237153222	-1.671175984196857e-08	-1.964381154929044e-07	4.684673356529282e-08	-1.002351720096514e-08	-2.717425423730645e-08	-1.34754465919237e-07	-2.132019931040145e-08
